<svg id="Layer_1" data-name="Layer 1" xmlns="http://www.w3.org/2000/svg" viewBox="0 0 128 43"><defs><style>.cls-1{fill:#231f20;}.cls-2{fill:#fff;}</style></defs><rect class="cls-1" width="108" height="43"/><path class="cls-2" d="M0,20.11,1.72,20h6v1.58H0Zm1.67-6.32h4.1C10.19,13.79,13,16,13,21s-2.84,7.3-7.08,7.3H1.67Zm3.9,11.83c2.45,0,4.11-1.2,4.11-4.66S8,16.42,5.57,16.42H5v9.2Z"/><path class="cls-2" d="M15.78,13.79h3.27V28.26H15.78Z"/><path class="cls-2" d="M22.47,13.79h9.07v2.74h-5.8v2.91h4.94v2.74H25.74v3.34h6v2.74H22.47Zm2.92-4.07h3.55l2,2.45L29.52,13l-2.31-1.85h-.09L24.81,13l-1.41-.87Zm.1,21.85a1.81,1.81,0,1,1,1.81,1.71A1.7,1.7,0,0,1,25.49,31.57Z"/><path class="cls-2" d="M34.65,13.79H38L41.78,21l1.43,3.18h.09c-.16-1.53-.42-3.55-.42-5.26V13.79H46V28.26H42.64L38.87,21l-1.43-3.16h-.09c.15,1.6.41,3.54.41,5.24v5.14H34.65Z"/><path class="cls-2" d="M53.87,13.79h3.35L61,21l1.43,3.18h.1c-.16-1.53-.42-3.55-.42-5.26V13.79h3.11V28.26H61.86L58.09,21l-1.44-3.16h-.09c.16,1.6.42,3.54.42,5.24v5.14H53.87Z"/><path class="cls-2" d="M68,21.11c0-4.8,3.2-7.59,7.06-7.59a6.26,6.26,0,0,1,4.56,1.88l-1.72,2.1a3.75,3.75,0,0,0-2.73-1.15c-2.23,0-3.81,1.75-3.81,4.65s1.34,4.7,4.07,4.7a2.59,2.59,0,0,0,1.53-.43v-2.5h-2.4V20.1h5.31v6.67A7,7,0,0,1,75,28.53C71.06,28.53,68,26,68,21.11Z"/><path class="cls-2" d="M82.81,13.79h3.28v5.57h5V13.79h3.27V28.26H91.08v-6h-5v6H82.81Z"/><path class="cls-2" d="M97.79,13.79h3.27V28.26H97.79Z"/><path class="cls-2" d="M104.48,13.79h9.06v2.74h-5.79v2.91h4.93v2.74h-4.93v3.34h6v2.74h-9.29Zm2.92-4.07H111l2,2.45-1.41.87-2.31-1.85h-.09L106.81,13l-1.4-.87Z"/><path class="cls-2" d="M116.65,13.79H120L123.78,21l1.43,3.18h.09c-.15-1.53-.42-3.55-.42-5.26V13.79H128V28.26h-3.35L120.87,21l-1.43-3.16h-.09c.15,1.6.42,3.54.42,5.24v5.14h-3.12Z"/></svg>